<svg width="60" height="60" viewBox="0 0 60 60" fill="none" xmlns="http://www.w3.org/2000/svg">
<path d="M50.1034 9.8967C55.7244 15.5177 55.1922 25.1632 48.9725 31.3829L37.664 42.6915L17.3086 22.3361L28.6171 11.0276C34.8368 4.80786 44.4824 4.27572 50.1034 9.8967Z" fill="#FFD11A"/>
<path d="M26.3554 54L6 33.6446C12.2455 27.3991 21.8653 26.8928 27.4862 32.5138C33.1072 38.1347 32.6009 47.7545 26.3554 54Z" fill="#404040"/>
<path d="M47.8398 52.8691L27.4844 32.5138C33.7299 26.2682 43.3496 25.7619 48.9706 31.3829C54.5916 37.0039 54.0853 46.6236 47.8398 52.8691Z" fill="#FFD11A"/>
<path d="M27.4882 32.5138L7.13281 12.1584C13.3784 5.91288 22.9981 5.40658 28.6191 11.0276C34.24 16.6485 33.7337 26.2682 27.4882 32.5138Z" fill="#FFD11A"/>
</svg>
